<?xml version="1.0" encoding="UTF-8"?>
<svg id="Warstwa_1" data-name="Warstwa 1" xmlns="http://www.w3.org/2000/svg" viewBox="0 0 231.4 205.01">
  <defs>
    <style>
      .cls-1 {
        fill: #3c3c3b;
        stroke: #3c3c3b;
      }

      .cls-1, .cls-2, .cls-3, .cls-4 {
        stroke-miterlimit: 10;
      }

      .cls-2 {
        fill: none;
        stroke: #f6f6f6;
      }

      .cls-3 {
        fill: #575756;
        stroke: #575756;
      }

      .cls-4 {
        fill: #6b6b6a;
        stroke: #6b6b6a;
      }
    </style>
  </defs>
  <path class="cls-4" d="m5.59,84.33h193.1v104.54c0,8.28-6.72,15-15,15H20.59c-8.28,0-15-6.72-15-15v-104.54h0Z"/>
  <path class="cls-4" d="m10.73,28.51h162.59c8.28,0,15,6.72,15,15v8.14H-4.27v-8.14c0-8.28,6.72-15,15-15Z" transform="translate(-8.16 33.89) rotate(-20)"/>
  <polygon class="cls-1" points="163.46 95.59 189.62 95.51 194.48 84.26 168.31 84.34 163.46 95.59"/>
  <polygon class="cls-1" points="149.16 19.29 173.7 10.22 182.18 19.07 157.63 28.14 149.16 19.29"/>
  <polygon class="cls-1" points="122.48 95.75 148.64 95.68 153.5 84.43 127.34 84.5 122.48 95.75"/>
  <polygon class="cls-1" points="110.71 33.46 135.25 24.4 143.73 33.25 119.18 42.31 110.71 33.46"/>
  <polygon class="cls-1" points="78.05 95.75 104.21 95.68 109.07 84.43 82.91 84.5 78.05 95.75"/>
  <polygon class="cls-1" points="68.96 48.65 93.5 39.59 101.98 48.44 77.43 57.5 68.96 48.65"/>
  <polygon class="cls-1" points="29.23 95.7 55.39 95.63 60.25 84.38 34.09 84.45 29.23 95.7"/>
  <polygon class="cls-1" points="23.07 65.3 47.61 56.24 56.08 65.09 31.54 74.15 23.07 65.3"/>
  <circle class="cls-3" cx="7.75" cy="84.24" r="7.25"/>
  <line class="cls-2" x1="15.02" y1="105.02" x2="189.27" y2="105.02"/>
  <line class="cls-2" x1="15.42" y1="126.75" x2="189.67" y2="126.75"/>
  <line class="cls-2" x1="36.03" y1="105.02" x2="36.03" y2="126.75"/>
  <line class="cls-2" x1="64.05" y1="105.02" x2="64.05" y2="126.75"/>
  <line class="cls-2" x1="93.55" y1="105.02" x2="93.55" y2="126.75"/>
  <line class="cls-2" x1="123.17" y1="105.02" x2="123.17" y2="126.75"/>
  <line class="cls-2" x1="156.93" y1="105.46" x2="156.93" y2="127.19"/>
  <line class="cls-2" x1="15.02" y1="157.14" x2="189.27" y2="157.14"/>
  <line class="cls-2" x1="15.42" y1="184.19" x2="189.67" y2="184.19"/>
</svg>