<?xml version="1.0" encoding="UTF-8"?>
<svg id="Warstwa_1" data-name="Warstwa 1" xmlns="http://www.w3.org/2000/svg" viewBox="0 0 242.33 225.92">
  <defs>
    <style>
      .cls-1 {
        fill: #3c3c3b;
        stroke: #3c3c3b;
      }

      .cls-1, .cls-2, .cls-3, .cls-4, .cls-5 {
        stroke-miterlimit: 10;
      }

      .cls-2 {
        fill: none;
      }

      .cls-2, .cls-3 {
        stroke: #f6f6f6;
      }

      .cls-3 {
        fill: #f6f6f6;
      }

      .cls-4 {
        fill: #575756;
        stroke: #575756;
      }

      .cls-5 {
        fill: #6b6b6a;
        stroke: #6b6b6a;
      }
    </style>
  </defs>
  <path class="cls-5" d="m10.45,89.72h193.1v104.54c0,8.28-6.72,15-15,15H25.45c-8.28,0-15-6.72-15-15v-104.54h0Z" transform="translate(-12.62 9.89) rotate(-5)"/>
  <path class="cls-5" d="m6.56,35.18h162.59c8.28,0,15,6.72,15,15v8.14H-8.44v-8.14c0-8.28,6.72-15,15-15Z" transform="translate(-11.53 41.51) rotate(-25)"/>
  <polygon class="cls-1" points="163.86 95.82 189.91 93.46 193.77 81.83 167.71 84.18 163.86 95.82"/>
  <polygon class="cls-1" points="142.96 21.05 166.62 9.88 175.83 17.96 152.17 29.13 142.96 21.05"/>
  <polygon class="cls-1" points="123.05 99.55 149.11 97.2 152.96 85.57 126.9 87.92 123.05 99.55"/>
  <polygon class="cls-1" points="105.89 38.52 129.55 27.35 138.77 35.43 115.11 46.6 105.89 38.52"/>
  <polygon class="cls-1" points="78.79 103.42 104.84 101.07 108.7 89.44 82.64 91.79 78.79 103.42"/>
  <polygon class="cls-1" points="65.62 57.3 89.28 46.13 98.5 54.21 74.84 65.37 65.62 57.3"/>
  <polygon class="cls-1" points="30.15 107.63 56.21 105.28 60.06 93.64 34 96 30.15 107.63"/>
  <polygon class="cls-1" points="21.36 77.88 45.02 66.72 54.23 74.79 30.57 85.96 21.36 77.88"/>
  <circle class="cls-4" cx="7.75" cy="98.08" r="7.25"/>
  <line class="cls-2" x1="16.8" y1="118.15" x2="190.39" y2="102.97"/>
  <line class="cls-2" x1="19.1" y1="139.76" x2="192.69" y2="124.57"/>
  <line class="cls-2" x1="37.73" y1="116.32" x2="39.62" y2="137.96"/>
  <line class="cls-2" x1="65.64" y1="113.88" x2="67.54" y2="135.52"/>
  <line class="cls-2" x1="95.03" y1="111.31" x2="96.93" y2="132.95"/>
  <line class="cls-2" x1="124.54" y1="108.73" x2="126.44" y2="130.37"/>
  <line class="cls-2" x1="158.21" y1="106.22" x2="160.11" y2="127.87"/>
  <line class="cls-2" x1="21.34" y1="170.07" x2="194.93" y2="154.88"/>
  <line class="cls-2" x1="24.11" y1="196.99" x2="197.69" y2="181.8"/>
  <circle class="cls-1" cx="193.77" cy="177.36" r="48.06"/>
  <circle class="cls-3" cx="200.94" cy="206.47" r="14.8"/>
  <circle class="cls-3" cx="165.52" cy="184.43" r="14.8"/>
  <circle class="cls-3" cx="186.59" cy="149.25" r="14.8"/>
  <circle class="cls-3" cx="221.78" cy="170.32" r="14.8"/>
  <circle class="cls-3" cx="193.63" cy="176.61" r="5.65"/>
</svg>